<?xml version="1.0" encoding="UTF-8" standalone="no"?>
<!-- Created with Inkscape (http://www.inkscape.org/) -->

<svg
   width="500mm"
   height="400mm"
   viewBox="0 0 500 400"
   version="1.1"
   id="svg1"
   inkscape:version="1.4 (86a8ad7, 2024-10-11)"
   sodipodi:docname="logo.svg"
   xmlns:inkscape="http://www.inkscape.org/namespaces/inkscape"
   xmlns:sodipodi="http://sodipodi.sourceforge.net/DTD/sodipodi-0.dtd"
   xmlns:xlink="http://www.w3.org/1999/xlink"
   xmlns="http://www.w3.org/2000/svg"
   xmlns:svg="http://www.w3.org/2000/svg">
  <sodipodi:namedview
     id="namedview1"
     pagecolor="#ffffff"
     bordercolor="#000000"
     borderopacity="0.25"
     inkscape:showpageshadow="2"
     inkscape:pageopacity="0.0"
     inkscape:pagecheckerboard="0"
     inkscape:deskcolor="#d1d1d1"
     inkscape:document-units="mm"
     showgrid="true"
     inkscape:zoom="0.34431467"
     inkscape:cx="993.27744"
     inkscape:cy="595.3856"
     inkscape:window-width="1783"
     inkscape:window-height="1020"
     inkscape:window-x="2260"
     inkscape:window-y="1136"
     inkscape:window-maximized="0"
     inkscape:current-layer="layer1">
    <inkscape:grid
       id="grid9"
       units="mm"
       originx="0"
       originy="0"
       spacingx="0.99999999"
       spacingy="0.99999999"
       empcolor="#0099e5"
       empopacity="0.30196078"
       color="#0099e5"
       opacity="0.14901961"
       empspacing="5"
       enabled="true"
       visible="true" />
  </sodipodi:namedview>
  <defs
     id="defs1">
    <symbol
       class="icon"
       height="800px"
       id="svg_7"
       viewBox="0 0 1024 1024"
       width="800px">
      <path
         d="m512,306.8c27.7,0 54.6,5.4 79.8,16.1c24.4,10.3 46.4,25.1 65.2,44s33.6,40.8 44,65.2c10.7,25.3 16.1,52.1 16.1,79.8c0,27.7 -5.4,54.6 -16.1,79.8c-10.3,24.4 -25.1,46.4 -44,65.2c-18.8,18.8 -40.8,33.6 -65.2,44c-25.3,10.7 -52.1,16.1 -79.8,16.1c-27.7,0 -54.6,-5.4 -79.8,-16.1c-24.4,-10.3 -46.4,-25.1 -65.2,-44c-18.8,-18.8 -33.6,-40.8 -44,-65.2c-10.7,-25.3 -16.1,-52.1 -16.1,-79.8c0,-27.7 5.4,-54.6 16.1,-79.8c10.3,-24.4 25.1,-46.4 44,-65.2s40.8,-33.6 65.2,-44c25.2,-10.6 52.1,-16.1 79.8,-16.1m0,-22c-125.4,0 -227.1,101.7 -227.1,227.1s101.7,227.2 227.1,227.2c125.4,0 227.1,-101.7 227.1,-227.1s-101.7,-227.2 -227.1,-227.2z"
         fill="#1348a5"
         id="svg_10" />
      <path
         d="m544.2,107.3l34.1,92.3l7.4,19.9l20.2,6.6c10.3,3.4 32.1,12.9 43.4,18.1l18.7,8.6l18.6,-8.9l87.9,-41.8l46.4,46.5l-41.2,89.4l-8.9,19.3l9.6,19c6.8,13.4 12.6,27.5 17.4,41.9l6.7,20.5l20.3,7.2l91.7,32.6l0,65.7l-92.3,34.1l-19.9,7.4l-6.6,20.2c-4.7,14.4 -10.6,28.4 -17.4,41.9l-9.8,19.3l9.3,19.5l41.8,87.9l-46.5,46.5l-89.1,-41.3l-19.3,-8.9l-19,9.6c-13.4,6.8 -27.5,12.6 -41.9,17.4l-20.5,6.7l-7.2,20.3l-32.6,91.7l-65.7,0l-34.1,-92.3l-7.4,-19.9l-20.2,-6.6c-10.3,-3.4 -32.1,-12.9 -43.4,-18.1l-18.7,-8.6l-18.6,8.9l-87.9,41.8l-46.4,-46.5l41.2,-89.3l8.9,-19.3l-9.6,-19c-6.8,-13.4 -12.6,-27.5 -17.4,-41.9l-6.7,-20.5l-20.3,-7.2l-91.7,-32.6l0,-65.7l92.3,-34.1l19.9,-7.4l6.6,-20.2c3.4,-10.3 12.9,-32.1 18.1,-43.4l8.6,-18.7l-8.9,-18.6l-41.8,-87.9l46.4,-46.4l89.3,41.2l19.3,8.9l19,-9.6c13.4,-6.8 27.5,-12.6 41.9,-17.4l20.5,-6.7l7.2,-20.3l32.6,-91.7l65.7,0m30.7,-44.1l-127.5,0l-43,121c-16.6,5.5 -32.7,12.1 -48.1,19.9l-117.2,-54l-90.1,90.1l55.2,116s-14.5,31.4 -19.9,48.1l-121,44.7l0,127.4l121,43c5.5,16.6 12.1,32.6 19.9,48l-54,117.2l90.1,90.1l116,-55.2s31.4,14.5 48.1,19.9l44.7,121l127.4,0l43,-121c16.6,-5.5 32.6,-12.1 48,-19.9l117.2,54l90.1,-90.1l-55.2,-116c7.8,-15.4 14.5,-31.4 19.9,-48l121,-44.7l0,-127.4l-121,-43c-5.5,-16.6 -12.1,-32.6 -19.9,-48l54,-117.2l-90.1,-90.1l-115.9,55.2s-31.5,-14.5 -48.1,-19.9l-44.6,-121.1z"
         fill="#1348a5"
         id="svg_9" />
    </symbol>
    <symbol
       height="800px"
       id="svg_5"
       viewBox="0 0 32 32"
       width="800px">
      <title
         id="title1">butterfly</title>
      <path
         d="m31.07,13.63c-5.69,-3.19 -11.96,-2.04 -16.74,2.97c5.66,3.11 11.99,2.02 16.74,-2.97zm-27.45,-11.17c6.23,1.76 9.83,6.97 9.67,13.84c-6.16,-1.79 -9.84,-7 -9.67,-13.84l0,0zm10.3,15.31c5.33,2.11 7.06,6.4 4.7,11.43c-5.25,-2.13 -7.06,-6.43 -4.7,-11.43l0,0zm-0.99,-0.35c-5.18,-2.12 -9.44,-0.29 -11.4,4.83c5.13,2.06 9.45,0.26 11.4,-4.83z"
         fill="#FF7369"
         id="svg_8" />
    </symbol>
  </defs>
  <g
     inkscape:label="Layer 1"
     inkscape:groupmode="layer"
     id="layer1">
    <g
       id="svg_63"
       transform="matrix(0.52099073,0,0,0.51477943,224.67454,330.04434)">
      <path
         clip-rule="evenodd"
         d="M 48.85,0 C 21.84,0 0,22 0,49.22 c 0,21.75 13.99,40.17 33.41,46.69 2.42,0.49 3.31,-1.06 3.31,-2.36 0,-1.15 -0.08,-5.06 -0.08,-9.13 -13.59,2.93 -16.42,-5.87 -16.42,-5.87 -2.18,-5.7 -5.42,-7.17 -5.42,-7.17 -4.45,-3.01 0.33,-3.01 0.33,-3.01 4.93,0.32 7.52,5.05 7.52,5.05 4.37,7.49 11.4,5.38 14.23,4.07 0.41,-3.18 1.7,-5.38 3.08,-6.6 -10.84,-1.14 -22.25,-5.38 -22.25,-24.28 0,-5.38 1.94,-9.78 5.02,-13.2 -0.49,-1.22 -2.19,-6.28 0.48,-13.04 0,0 4.13,-1.3 13.43,5.05 a 46.97,46.97 0 0 1 12.21,-1.63 c 4.13,0 8.33,0.57 12.22,1.63 9.3,-6.35 13.42,-5.05 13.42,-5.05 2.67,6.76 0.97,11.82 0.49,13.04 3.15,3.42 5.01,7.82 5.01,13.2 0,18.9 -11.4,23.06 -22.32,24.28 1.78,1.55 3.32,4.48 3.32,9.13 0,6.6 -0.08,11.9 -0.08,13.52 0,1.31 0.89,2.86 3.31,2.37 C 83.63,89.39 97.63,70.97 97.63,49.22 97.71,22 75.79,0 48.85,0 Z"
         fill="#24292f"
         fill-rule="evenodd"
         id="path9" />
    </g>
    <g
       id="svg_12"
       transform="matrix(0.58234773,0,0,0.55369298,162.32089,26.286743)">
      <!-- Created with SVG-edit - https://github.com/SVG-Edit/svgedit-->
      <defs
         id="defs6">
        <symbol
           class="icon"
           height="800"
           id="symbol5"
           viewBox="0 0 1024 1024"
           width="800">
          <path
             d="m 512,306.8 c 27.7,0 54.6,5.4 79.8,16.1 24.4,10.3 46.4,25.1 65.2,44 18.8,18.9 33.6,40.8 44,65.2 10.7,25.3 16.1,52.1 16.1,79.8 0,27.7 -5.4,54.6 -16.1,79.8 -10.3,24.4 -25.1,46.4 -44,65.2 -18.8,18.8 -40.8,33.6 -65.2,44 -25.3,10.7 -52.1,16.1 -79.8,16.1 -27.7,0 -54.6,-5.4 -79.8,-16.1 -24.4,-10.3 -46.4,-25.1 -65.2,-44 -18.8,-18.8 -33.6,-40.8 -44,-65.2 -10.7,-25.3 -16.1,-52.1 -16.1,-79.8 0,-27.7 5.4,-54.6 16.1,-79.8 10.3,-24.4 25.1,-46.4 44,-65.2 18.9,-18.8 40.8,-33.6 65.2,-44 25.2,-10.6 52.1,-16.1 79.8,-16.1 m 0,-22 c -125.4,0 -227.1,101.7 -227.1,227.1 0,125.4 101.7,227.2 227.1,227.2 C 637.4,739.1 739.1,637.4 739.1,512 739.1,386.6 637.4,284.8 512,284.8 Z"
             fill="#1348a5"
             id="path4" />
          <path
             d="m 544.2,107.3 34.1,92.3 7.4,19.9 20.2,6.6 c 10.3,3.4 32.1,12.9 43.4,18.1 l 18.7,8.6 18.6,-8.9 87.9,-41.8 46.4,46.5 -41.2,89.4 -8.9,19.3 9.6,19 c 6.8,13.4 12.6,27.5 17.4,41.9 l 6.7,20.5 20.3,7.2 91.7,32.6 v 65.7 l -92.3,34.1 -19.9,7.4 -6.6,20.2 c -4.7,14.4 -10.6,28.4 -17.4,41.9 l -9.8,19.3 9.3,19.5 41.8,87.9 -46.5,46.5 -89.1,-41.3 -19.3,-8.9 -19,9.6 c -13.4,6.8 -27.5,12.6 -41.9,17.4 l -20.5,6.7 -7.2,20.3 -32.6,91.7 h -65.7 l -34.1,-92.3 -7.4,-19.9 -20.2,-6.6 C 407.8,794.3 386,784.8 374.7,779.6 L 356,771 l -18.6,8.9 -87.9,41.8 -46.4,-46.5 41.2,-89.3 8.9,-19.3 -9.6,-19 C 236.8,634.2 231,620.1 226.2,605.7 l -6.7,-20.5 -20.3,-7.2 -91.7,-32.6 v -65.7 l 92.3,-34.1 19.9,-7.4 6.6,-20.2 c 3.4,-10.3 12.9,-32.1 18.1,-43.4 l 8.6,-18.7 -8.9,-18.6 -41.8,-87.9 46.4,-46.4 89.3,41.2 19.3,8.9 19,-9.6 c 13.4,-6.8 27.5,-12.6 41.9,-17.4 l 20.5,-6.7 7.2,-20.3 32.6,-91.7 h 65.7 M 574.9,63.3 H 447.4 l -43,121 c -16.6,5.5 -32.7,12.1 -48.1,19.9 l -117.2,-54 -90.1,90.1 55.2,116 c 0,0 -14.5,31.4 -19.9,48.1 l -121,44.7 v 127.4 l 121,43 c 5.5,16.6 12.1,32.6 19.9,48 l -54,117.2 90.1,90.1 116,-55.2 c 0,0 31.4,14.5 48.1,19.9 l 44.7,121 h 127.4 l 43,-121 c 16.6,-5.5 32.6,-12.1 48,-19.9 l 117.2,54 90.1,-90.1 -55.2,-116 c 7.8,-15.4 14.5,-31.4 19.9,-48 l 121,-44.7 V 447.4 l -121,-43 c -5.5,-16.6 -12.1,-32.6 -19.9,-48 l 54,-117.2 -90.1,-90.1 -115.9,55.2 c 0,0 -31.5,-14.5 -48.1,-19.9 z"
             fill="#1348a5"
             id="path5" />
        </symbol>
        <symbol
           height="800"
           id="symbol6"
           viewBox="0 0 32 32"
           width="800">
          <title
             id="title5">butterfly</title>
          <path
             d="m 31.07,13.63 c -5.69,-3.19 -11.96,-2.04 -16.74,2.97 5.66,3.11 11.99,2.02 16.74,-2.97 z M 3.62,2.46 C 9.85,4.22 13.45,9.43 13.29,16.3 7.13,14.51 3.45,9.3 3.62,2.46 Z m 10.3,15.31 c 5.33,2.11 7.06,6.4 4.7,11.43 -5.25,-2.13 -7.06,-6.43 -4.7,-11.43 z M 12.93,17.42 C 7.75,15.3 3.49,17.13 1.53,22.25 c 5.13,2.06 9.45,0.26 11.4,-4.83 z"
             fill="#ff7369"
             id="path6" />
        </symbol>
      </defs>
      <g
         class="layer"
         id="g8">
        <title
           id="title6">Layer 1</title>
        <g
           id="g7">
          <use
             id="use6"
             transform="matrix(0.417513,0,0,0.418727,544.381,599.354)"
             x="-1344.7"
             xlink:href="#svg_7"
             y="-1472.0601" />
          <use
             id="use7"
             transform="matrix(0.14368,0,0,0.145739,497.459,474.127)"
             x="-2777.47"
             xlink:href="#svg_5"
             y="-2604.5801" />
        </g>
      </g>
    </g>
    <g
       id="svg_13"
       transform="matrix(0.90578717,0,0,0.99132732,22.629672,-2.1318264)">
      <text
         fill="#1348a5"
         font-family="Sans-serif"
         font-size="25px"
         font-weight="bold"
         id="svg_59"
         stroke="#000000"
         stroke-width="0"
         text-anchor="middle"
         transform="matrix(2.43533,0.022163,-0.0193984,2.13155,-4.81782,-82.4271)"
         x="105.51"
         xml:space="preserve"
         y="158.74001">Monarch Money</text>
      <text
         fill="#1348a5"
         font-family="Sans-serif"
         font-size="25px"
         font-weight="bold"
         id="svg_61"
         stroke="#000000"
         stroke-width="0"
         text-anchor="middle"
         transform="matrix(2.43533,0.022163,-0.0193984,2.13155,-4.81782,-82.4271)"
         x="106.82"
         xml:space="preserve"
         y="185.17">Toolkit</text>
    </g>
  </g>
</svg>
