<?xml version="1.0"?>
<svg width="300" height="300" xmlns="http://www.w3.org/2000/svg" xmlns:svg="http://www.w3.org/2000/svg" xmlns:xlink="http://www.w3.org/1999/xlink" data-name="Layer 1">
 <!-- Created with SVG-edit - https://github.com/SVG-Edit/svgedit-->
 <defs>
  <symbol class="icon" height="800px" id="svg_1" viewBox="0 0 1024 1024" width="800px" xmlns="http://www.w3.org/2000/svg">
   <path d="m512,306.8c27.7,0 54.6,5.4 79.8,16.1c24.4,10.3 46.4,25.1 65.2,44s33.6,40.8 44,65.2c10.7,25.3 16.1,52.1 16.1,79.8c0,27.7 -5.4,54.6 -16.1,79.8c-10.3,24.4 -25.1,46.4 -44,65.2c-18.8,18.8 -40.8,33.6 -65.2,44c-25.3,10.7 -52.1,16.1 -79.8,16.1c-27.7,0 -54.6,-5.4 -79.8,-16.1c-24.4,-10.3 -46.4,-25.1 -65.2,-44c-18.8,-18.8 -33.6,-40.8 -44,-65.2c-10.7,-25.3 -16.1,-52.1 -16.1,-79.8c0,-27.7 5.4,-54.6 16.1,-79.8c10.3,-24.4 25.1,-46.4 44,-65.2s40.8,-33.6 65.2,-44c25.2,-10.6 52.1,-16.1 79.8,-16.1m0,-22c-125.4,0 -227.1,101.7 -227.1,227.1s101.7,227.2 227.1,227.2c125.4,0 227.1,-101.7 227.1,-227.1s-101.7,-227.2 -227.1,-227.2z" fill="#1348a5" id="svg_3"/>
   <path d="m544.2,107.3l34.1,92.3l7.4,19.9l20.2,6.6c10.3,3.4 32.1,12.9 43.4,18.1l18.7,8.6l18.6,-8.9l87.9,-41.8l46.4,46.5l-41.2,89.4l-8.9,19.3l9.6,19c6.8,13.4 12.6,27.5 17.4,41.9l6.7,20.5l20.3,7.2l91.7,32.6l0,65.7l-92.3,34.1l-19.9,7.4l-6.6,20.2c-4.7,14.4 -10.6,28.4 -17.4,41.9l-9.8,19.3l9.3,19.5l41.8,87.9l-46.5,46.5l-89.1,-41.3l-19.3,-8.9l-19,9.6c-13.4,6.8 -27.5,12.6 -41.9,17.4l-20.5,6.7l-7.2,20.3l-32.6,91.7l-65.7,0l-34.1,-92.3l-7.4,-19.9l-20.2,-6.6c-10.3,-3.4 -32.1,-12.9 -43.4,-18.1l-18.7,-8.6l-18.6,8.9l-87.9,41.8l-46.4,-46.5l41.2,-89.3l8.9,-19.3l-9.6,-19c-6.8,-13.4 -12.6,-27.5 -17.4,-41.9l-6.7,-20.5l-20.3,-7.2l-91.7,-32.6l0,-65.7l92.3,-34.1l19.9,-7.4l6.6,-20.2c3.4,-10.3 12.9,-32.1 18.1,-43.4l8.6,-18.7l-8.9,-18.6l-41.8,-87.9l46.4,-46.4l89.3,41.2l19.3,8.9l19,-9.6c13.4,-6.8 27.5,-12.6 41.9,-17.4l20.5,-6.7l7.2,-20.3l32.6,-91.7l65.7,0m30.7,-44.1l-127.5,0l-43,121c-16.6,5.5 -32.7,12.1 -48.1,19.9l-117.2,-54l-90.1,90.1l55.2,116s-14.5,31.4 -19.9,48.1l-121,44.7l0,127.4l121,43c5.5,16.6 12.1,32.6 19.9,48l-54,117.2l90.1,90.1l116,-55.2s31.4,14.5 48.1,19.9l44.7,121l127.4,0l43,-121c16.6,-5.5 32.6,-12.1 48,-19.9l117.2,54l90.1,-90.1l-55.2,-116c7.8,-15.4 14.5,-31.4 19.9,-48l121,-44.7l0,-127.4l-121,-43c-5.5,-16.6 -12.1,-32.6 -19.9,-48l54,-117.2l-90.1,-90.1l-115.9,55.2s-31.5,-14.5 -48.1,-19.9l-44.6,-121.1z" fill="#1348a5" id="svg_5"/>
  </symbol>
  <symbol height="800px" id="svg_4" viewBox="0 0 32 32" width="800px" xmlns="http://www.w3.org/2000/svg">
   <title>butterfly</title>
   <path d="m31.07,13.63c-5.69,-3.19 -11.96,-2.04 -16.74,2.97c5.66,3.11 11.99,2.02 16.74,-2.97zm-27.45,-11.17c6.23,1.76 9.83,6.97 9.67,13.84c-6.16,-1.79 -9.84,-7 -9.67,-13.84l0,0zm10.3,15.31c5.33,2.11 7.06,6.4 4.7,11.43c-5.25,-2.13 -7.06,-6.43 -4.7,-11.43l0,0zm-0.99,-0.35c-5.18,-2.12 -9.44,-0.29 -11.4,4.83c5.13,2.06 9.45,0.26 11.4,-4.83z" fill="#FF7369" id="svg_7"/>
  </symbol>
 </defs>
 <g class="layer">
  <title>Layer 1</title>
  <g id="svg_8">
   <use id="svg_2" transform="matrix(0.417513 0 0 0.418727 544.381 599.354)" x="-1344.7" xlink:href="#svg_1" y="-1472.06"/>
   <use id="svg_6" transform="matrix(0.14368 0 0 0.145739 497.459 474.127)" x="-2777.47" xlink:href="#svg_4" y="-2604.58"/>
  </g>
 </g>
</svg>